<svg width="40" height="40" viewBox="0 0 40 40" fill="none" xmlns="http://www.w3.org/2000/svg">
<path d="M0.5 20C0.5 9.23045 9.23045 0.5 20 0.5C30.7696 0.5 39.5 9.23045 39.5 20C39.5 30.7696 30.7696 39.5 20 39.5C9.23045 39.5 0.5 30.7696 0.5 20Z" stroke="#969186"/>
<path d="M20 17.751C19.4033 17.751 18.831 17.988 18.409 18.41C17.9871 18.8319 17.75 19.4042 17.75 20.001C17.75 20.5977 17.9871 21.17 18.409 21.592C18.831 22.0139 19.4033 22.251 20 22.251C20.5967 22.251 21.169 22.0139 21.591 21.592C22.0129 21.17 22.25 20.5977 22.25 20.001C22.25 19.4042 22.0129 18.8319 21.591 18.41C21.169 17.988 20.5967 17.751 20 17.751ZM20 16.251C20.9946 16.251 21.9484 16.6461 22.6517 17.3493C23.3549 18.0526 23.75 19.0064 23.75 20.001C23.75 20.9955 23.3549 21.9494 22.6517 22.6526C21.9484 23.3559 20.9946 23.751 20 23.751C19.0054 23.751 18.0516 23.3559 17.3483 22.6526C16.6451 21.9494 16.25 20.9955 16.25 20.001C16.25 19.0064 16.6451 18.0526 17.3483 17.3493C18.0516 16.6461 19.0054 16.251 20 16.251ZM24.875 16.0635C24.875 16.3121 24.7762 16.5506 24.6004 16.7264C24.4246 16.9022 24.1861 17.001 23.9375 17.001C23.6889 17.001 23.4504 16.9022 23.2746 16.7264C23.0988 16.5506 23 16.3121 23 16.0635C23 15.8148 23.0988 15.5764 23.2746 15.4006C23.4504 15.2247 23.6889 15.126 23.9375 15.126C24.1861 15.126 24.4246 15.2247 24.6004 15.4006C24.7762 15.5764 24.875 15.8148 24.875 16.0635ZM20 14.001C18.1445 14.001 17.8415 14.0062 16.9782 14.0445C16.3902 14.0722 15.9957 14.151 15.6297 14.2935C15.3042 14.4195 15.0695 14.5702 14.8197 14.8207C14.585 15.0475 14.4045 15.3244 14.2917 15.6307C14.1492 15.9982 14.0705 16.392 14.0435 16.9792C14.0045 17.8072 14 18.0967 14 20.001C14 21.8565 14.0052 22.1595 14.0435 23.0227C14.0712 23.61 14.15 24.0052 14.2917 24.3705C14.4193 24.6967 14.5693 24.9315 14.8183 25.1805C15.071 25.4325 15.3058 25.5832 15.6283 25.7077C15.9988 25.851 16.3932 25.9305 16.9782 25.9575C17.8062 25.9965 18.0957 26.001 20 26.001C21.8555 26.001 22.1585 25.9957 23.0217 25.9575C23.6082 25.9297 24.0035 25.851 24.3695 25.7092C24.6943 25.5825 24.9305 25.4317 25.1795 25.1827C25.4323 24.93 25.583 24.6952 25.7075 24.3727C25.85 24.003 25.9295 23.6077 25.9565 23.0227C25.9955 22.1947 26 21.9052 26 20.001C26 18.1455 25.9947 17.8425 25.9565 16.9792C25.9287 16.3927 25.85 15.9967 25.7075 15.6307C25.5945 15.3247 25.4143 15.0479 25.1802 14.8207C24.9535 14.5859 24.6766 14.4053 24.3702 14.2927C24.0027 14.1502 23.6082 14.0715 23.0217 14.0445C22.1937 14.0055 21.9043 14.001 20 14.001ZM20 12.501C22.0378 12.501 22.292 12.5085 23.0915 12.546C23.8902 12.5835 24.434 12.7087 24.9125 12.8947C25.4075 13.0852 25.8245 13.3432 26.2415 13.7595C26.6229 14.1344 26.918 14.5879 27.1063 15.0885C27.2915 15.5662 27.4175 16.1107 27.455 16.9095C27.4903 17.709 27.5 17.9632 27.5 20.001C27.5 22.0387 27.4925 22.293 27.455 23.0925C27.4175 23.8912 27.2915 24.435 27.1063 24.9135C26.9185 25.4143 26.6233 25.8679 26.2415 26.2425C25.8665 26.6237 25.413 26.9188 24.9125 27.1072C24.4347 27.2925 23.8902 27.4185 23.0915 27.456C22.292 27.4912 22.0378 27.501 20 27.501C17.9622 27.501 17.708 27.4935 16.9085 27.456C16.1097 27.4185 15.566 27.2925 15.0875 27.1072C14.5867 26.9193 14.1332 26.6242 13.7585 26.2425C13.3771 25.8676 13.082 25.4141 12.8938 24.9135C12.7078 24.4357 12.5825 23.8912 12.545 23.0925C12.5098 22.293 12.5 22.0387 12.5 20.001C12.5 17.9632 12.5075 17.709 12.545 16.9095C12.5825 16.11 12.7078 15.567 12.8938 15.0885C13.0814 14.5876 13.3766 14.134 13.7585 13.7595C14.1333 13.3779 14.5868 13.0828 15.0875 12.8947C15.566 12.7087 16.109 12.5835 16.9085 12.546C17.708 12.5107 17.9622 12.501 20 12.501Z" fill="#BDB8AD"/>
</svg>
