<svg width="40" height="40" viewBox="0 0 40 40" fill="none" xmlns="http://www.w3.org/2000/svg">
<path d="M0.5 20C0.5 9.23045 9.23045 0.5 20 0.5C30.7696 0.5 39.5 9.23045 39.5 20C39.5 30.7696 30.7696 39.5 20 39.5C9.23045 39.5 0.5 30.7696 0.5 20Z" stroke="#969186"/>
<path d="M16.6758 15.3349C16.6756 15.6885 16.5345 16.0275 16.2834 16.2775C16.0324 16.5274 15.692 16.6677 15.3372 16.6675C14.9824 16.6673 14.6422 16.5267 14.3914 16.2765C14.1406 16.0264 13.9998 15.6872 14 15.3336C14.0002 14.98 14.1413 14.6409 14.3923 14.391C14.6434 14.1411 14.9837 14.0008 15.3386 14.001C15.6934 14.0011 16.0336 14.1418 16.2844 14.3919C16.5352 14.6421 16.6759 14.9813 16.6758 15.3349ZM16.7159 17.6548H14.0401V26.001H16.7159V17.6548ZM20.9436 17.6548H18.2812V26.001H20.9168V21.6212C20.9168 19.1814 24.1077 18.9547 24.1077 21.6212V26.001H26.75V20.7146C26.75 16.6015 22.0273 16.7548 20.9168 18.7747L20.9436 17.6548Z" fill="#BDB8AD"/>
</svg>
