<svg width="40" height="40" viewBox="0 0 40 40" fill="none" xmlns="http://www.w3.org/2000/svg">
<path d="M0.5 20C0.5 9.23045 9.23045 0.5 20 0.5C30.7696 0.5 39.5 9.23045 39.5 20C39.5 30.7696 30.7696 39.5 20 39.5C9.23045 39.5 0.5 30.7696 0.5 20Z" stroke="#969186"/>
<path d="M27.6215 15.2432C27.0489 15.4964 26.4417 15.6628 25.82 15.7367C26.4753 15.3447 26.9658 14.7279 27.2 14.0012C26.585 14.3672 25.9108 14.6237 25.208 14.7624C24.736 14.2574 24.1103 13.9224 23.4282 13.8096C22.7462 13.6968 22.046 13.8125 21.4365 14.1388C20.827 14.465 20.3423 14.9834 20.0578 15.6135C19.7734 16.2436 19.7051 16.95 19.8635 17.6229C18.6163 17.5604 17.3962 17.2363 16.2824 16.6717C15.1687 16.107 14.1861 15.3145 13.3985 14.3454C13.1197 14.8243 12.9732 15.3686 12.974 15.9227C12.974 17.0102 13.5275 17.9709 14.369 18.5334C13.871 18.5177 13.3839 18.3832 12.9485 18.1411V18.1801C12.9486 18.9044 13.1993 19.6063 13.6579 20.1669C14.1165 20.7275 14.7548 21.1122 15.4647 21.2559C15.0024 21.3811 14.5177 21.3996 14.0472 21.3099C14.2474 21.9333 14.6375 22.4785 15.1629 22.8692C15.6884 23.2599 16.3228 23.4765 16.9775 23.4886C16.3268 23.9996 15.5819 24.3774 14.7851 24.6003C13.9884 24.8231 13.1556 24.8868 12.3342 24.7876C13.768 25.7097 15.437 26.1992 17.1417 26.1976C22.9115 26.1976 26.0668 21.4179 26.0668 17.2727C26.0668 17.1377 26.063 17.0012 26.057 16.8677C26.6712 16.4238 27.2012 15.8739 27.6223 15.2439L27.6215 15.2432Z" fill="#BDB8AD"/>
</svg>
